<svg width="24" height="16" viewBox="0 0 24 16" fill="none" xmlns="http://www.w3.org/2000/svg">
<path d="M4.40231 9.39182C4.34247 9.34786 4.2706 9.32328 4.19637 9.32138C4.12214 9.31948 4.0491 9.34035 3.98708 9.38118C3.92507 9.42202 3.87703 9.48086 3.84945 9.5498C3.82186 9.61874 3.81604 9.69447 3.83277 9.76682C4.63959 13.3309 7.83186 16 11.6364 16C12.4443 16.0003 13.2476 15.8776 14.0187 15.6364C14.0898 15.6144 14.1525 15.5712 14.1983 15.5124C14.2441 15.4537 14.2708 15.3824 14.2747 15.308C14.2786 15.2336 14.2596 15.1599 14.2202 15.0967C14.1809 15.0334 14.123 14.9838 14.0546 14.9545C12.3508 14.2036 10.6895 13.3598 9.07822 12.4268C7.46562 11.5008 5.90467 10.4877 4.40231 9.39182ZM22.3964 11.7959C22.2059 11.5423 21.9823 11.2759 21.7282 10.9991C21.6452 10.9076 21.54 10.8391 21.4228 10.8001C21.3056 10.761 21.1803 10.7528 21.059 10.7763C20.9377 10.7997 20.8245 10.854 20.7303 10.9338C20.636 11.0137 20.564 11.1165 20.521 11.2323C20.521 11.2395 20.516 11.2464 20.5132 11.2536C20.4679 11.3768 20.4573 11.51 20.4826 11.6387C20.5078 11.7674 20.5679 11.8868 20.6564 11.9836C21.69 13.12 21.8573 13.7341 21.8146 13.8636C21.7237 13.965 21.0396 14.1768 19.1714 13.7032C18.9038 13.6353 18.6111 13.5526 18.2932 13.455C18.0884 13.392 17.8794 13.3239 17.6664 13.2509C18.001 12.8671 18.2984 12.4524 18.5546 12.0123C18.5623 11.9991 18.5705 11.9859 18.5782 11.9723C19.2721 10.7635 19.637 9.39383 19.6364 8C19.6366 7.71152 19.6214 7.42323 19.591 7.13636C19.156 3.12864 15.7546 1.26241e-06 11.6364 1.26241e-06C9.88906 -0.000981795 8.18979 0.572201 6.80004 1.63136C5.95771 2.27247 5.24986 3.07315 4.71686 3.98773C4.70959 4.00091 4.7014 4.01409 4.69368 4.02727C4.44036 4.46859 4.22986 4.93313 4.06504 5.41455C3.89565 5.26697 3.73216 5.12046 3.57459 4.975C3.32959 4.74773 3.11231 4.53727 2.91913 4.33864C1.57504 2.96318 1.41504 2.26546 1.45731 2.13636C1.54822 2.035 2.16368 1.86955 3.66731 2.19591C3.79587 2.22418 3.92971 2.21662 4.05427 2.17406C4.17882 2.1315 4.2893 2.05557 4.37368 1.95455L4.39004 1.93455C4.46847 1.8403 4.52136 1.72748 4.54363 1.60692C4.56591 1.48635 4.55684 1.36208 4.51727 1.24603C4.47771 1.12999 4.40898 1.02605 4.31769 0.944206C4.2264 0.86236 4.11561 0.805347 3.99595 0.778638C3.63906 0.697773 3.27829 0.635117 2.91504 0.59091C1.51868 0.430456 0.604585 0.705456 0.197767 1.40909C0.0504944 1.66273 -0.0908693 2.095 0.0741307 2.70909C0.318222 3.62091 1.18822 4.72727 2.41959 5.88636C2.81186 6.25591 3.24049 6.63046 3.69777 7.00636C4.03049 7.27909 4.37959 7.55455 4.73868 7.82818C4.97837 8.01 5.22307 8.19182 5.47277 8.37364C5.72246 8.55546 5.97549 8.73394 6.23186 8.90909C7.38686 9.70955 8.60731 10.4782 9.80413 11.1677C10.2387 11.418 10.6726 11.6605 11.1059 11.895C11.5393 12.1295 11.9691 12.3539 12.3955 12.5682C13.391 13.0682 14.3659 13.5191 15.2982 13.9059C15.6979 14.072 16.089 14.2259 16.4714 14.3677C17.0119 14.5686 17.5337 14.7455 18.0309 14.8945L18.0809 14.9095C19.2505 15.2577 20.2364 15.4409 21.0119 15.455H21.091C22.0746 15.455 22.7409 15.165 23.0719 14.5914C23.485 13.8814 23.2573 12.9405 22.3964 11.7959Z" fill="white"/>
</svg>
